<svg width="156" height="152" viewBox="0 0 156 152" fill="none" xmlns="http://www.w3.org/2000/svg">
<ellipse cx="78.3356" cy="72" rx="67.197" ry="69.6774" fill="#F7F7F7"/>
<g filter="url(#filter0_d_1_54)">
<path fill-rule="evenodd" clip-rule="evenodd" d="M78.1828 139C106.303 139 130.38 121.173 139.908 96H145.227C135.468 123.965 109.136 144 78.1828 144C47.2299 144 20.8974 123.965 11.1382 96H16.4576C25.9856 121.173 50.062 139 78.1828 139ZM78.1828 0C48.3849 0 22.869 18.568 12.2993 44.9032H17.7189C27.9919 21.3778 51.2296 5 78.1828 5C105.136 5 128.374 21.3778 138.647 44.9032H144.066C133.497 18.568 107.981 0 78.1828 0Z" fill="#171515"/>
</g>
<path d="M151.712 97.5485C151.712 77.679 154.61 51.9191 151.712 46.6693C148.813 41.4195 108.735 41.0669 81.0391 40.6453C50.9752 40.1878 6.85885 42.6128 4.18734 45.3065C1.51583 48.0001 4.18734 97.5485 4.18734 97.5485C4.18734 97.5485 48.5439 90.637 77.1772 90.5808C106.411 90.5235 151.712 97.5485 151.712 97.5485Z" fill="white" stroke="#101010" stroke-width="5"/>
<path d="M63.371 89.0719L62.428 89.0086L62.3116 89.9464C61.6386 95.3686 60.5876 99.0361 59.252 101.107C58.0137 103.001 56.4016 103.888 54.3408 103.888C52.2629 103.888 50.0635 103.393 47.7349 102.373C47.8859 83.2359 49.7961 59.4802 53.4722 31.0961L53.6184 29.9677H52.4805H28.1276H27.196L27.1301 30.8969C26.3388 42.0553 25.9438 55.4222 25.9438 70.9935C25.9438 86.5725 26.4801 101.642 27.5531 116.202L27.6214 117.129H28.5504H70.0687H70.8802L71.0473 116.335C72.4682 109.58 73.6001 101.076 74.4476 90.8334L74.5314 89.8212L73.518 89.7532L63.371 89.0719Z" fill="white" stroke="black" stroke-width="2"/>
<path d="M53.5662 72.3525L53.4063 72.0796C51.8686 69.4534 51.0833 66.7264 51.0833 63.9114C51.0833 61.0635 51.9813 58.6032 53.7975 56.5933C55.6342 54.5608 58.0047 53.5457 60.8271 53.5457C62.3237 53.5457 63.802 53.8469 65.2563 54.438L65.568 54.5647L65.7397 54.8541C66.5734 56.259 67.1354 57.7357 67.4229 59.2792C67.3359 57.9481 67.2863 56.6244 67.2742 55.3082L67.2649 54.2989H68.2741H75.446H76.6296L76.432 55.4659C76.0984 57.4353 75.9302 59.5403 75.9302 61.7829C75.9302 62.2495 75.9424 62.7317 75.9669 63.2294C75.9747 63.1914 75.9822 63.1548 75.9895 63.1194C76.1224 62.4771 76.3205 61.5749 76.583 60.4159L76.5859 60.4028L76.586 60.4028C76.8667 59.2361 77.1237 58.3254 77.3588 57.6986L77.363 57.6872L77.3631 57.6872C77.6005 57.0768 77.8865 56.4044 78.2198 55.671L78.2209 55.6687C78.8761 54.2369 79.7956 53.1497 81.0348 52.5617L81.0661 52.5468L81.0984 52.5341C81.5078 52.3736 82.1897 52.2539 83.0181 52.1474C83.7942 52.0267 84.1807 51.8374 84.3441 51.6953L87.0741 49.3215L85.9509 52.7604C85.7743 53.301 85.5942 53.814 85.4104 54.2989H85.9125H94.0668H94.7794L95.012 54.9725C95.8911 57.5178 96.5352 60.2487 96.9473 63.1631C96.9472 63.1069 96.9471 63.0507 96.9471 62.9945C96.9471 59.9806 97.0625 57.3779 97.2967 55.1924L97.3924 54.2989H98.291H105.365H106.579L106.346 55.4909C105.347 60.5963 104.805 64.8897 104.709 68.383C105.127 68.4696 105.526 68.5112 105.905 68.5112C106.399 68.5112 106.678 68.3734 106.861 68.1887C107.08 67.9629 107.342 67.4564 107.526 66.4779L107.686 65.6246L108.553 65.6632L111.5 65.7942L112.582 65.8423L112.448 66.9172C112.198 68.9175 111.861 70.609 111.426 71.9754L111.205 72.6725H110.473H98.4138H97.5189L97.4984 72.488V72.6725H96.4984H90.8002H89.8514L89.8016 71.7251C89.7763 71.2451 89.7397 70.7577 89.6917 70.263C89.0449 71.0037 88.3573 71.7164 87.6291 72.4011L87.3403 72.6725H86.9441H81.2213H80.3412L80.2294 71.7995C80.1072 70.8447 80.0494 69.6184 80.0494 68.1358C80.0494 66.5771 80.2214 65.0204 80.5641 63.4668L80.6794 62.9442L81.1782 62.7502C82.2014 62.3523 83.2168 61.6663 84.2194 60.6536L84.2247 60.6483C85.1167 59.7608 85.7738 58.8289 86.2143 57.854C85.8478 57.1257 85.4666 56.4546 85.0714 55.8397L84.8943 55.5643C84.7716 55.8428 84.6473 56.1095 84.5213 56.3643L84.332 56.7474L83.9242 56.8753C83.3176 57.0656 82.7427 57.1831 82.2249 57.1831C82.0414 57.1831 81.86 57.1764 81.6807 57.1627C81.3484 57.8055 81.0277 58.6185 80.726 59.6163C80.3243 60.9443 80.0226 62.1212 79.8176 63.1498C79.6235 64.2073 79.4043 65.5058 79.1601 67.047C79.1601 67.0473 79.16 67.0476 79.16 67.0479L78.1723 66.8914C76.9279 74.7944 75.6834 80.4051 74.439 83.7235L53.5662 72.3525ZM53.5662 72.3525L53.8539 72.4839C55.1498 73.0756 56.4216 73.3929 57.6587 73.3929C60.4791 73.3929 62.871 72.1741 64.7906 69.8539C66.6555 67.5998 67.6059 64.9515 67.6467 61.9525C67.9805 65.2237 68.5365 68.539 69.3139 71.898L69.4932 72.6725H70.2882H74.1367L53.5662 72.3525ZM126.062 60.2079C125.96 60.6516 125.854 61.0697 125.745 61.4618L125.524 62.2553L124.703 62.1903L122.222 61.9938L121.113 61.906L121.318 60.8126C121.372 60.5231 121.399 60.2354 121.399 59.949C121.399 59.2733 121.251 58.9348 121.111 58.7674C120.784 61.6414 120.624 64.0082 120.624 65.8763C120.624 68.0406 120.689 69.9459 120.817 71.5948L120.901 72.6725H119.82H114.466H113.614L113.479 71.8309C112.912 68.3008 112.631 64.5141 112.631 60.473C112.631 60.2384 112.633 59.965 112.637 59.6529C112.402 60.0951 112.224 60.6527 112.113 61.3498L111.969 62.2648L111.045 62.1902L108.614 61.9937L107.541 61.907L107.706 60.8436L108.59 55.1456L108.722 54.2989H109.578H125.838H125.912H126.847H127.057H134.019H135.202L135.005 55.4659C134.671 57.4353 134.503 59.5403 134.503 61.7829C134.503 62.2495 134.515 62.7317 134.54 63.2294C134.547 63.1915 134.555 63.1548 134.562 63.1194C134.695 62.4771 134.893 61.5749 135.156 60.4159L135.159 60.4028L135.159 60.4028C135.439 59.2361 135.696 58.3254 135.931 57.6986L135.936 57.6872L135.936 57.6872C136.173 57.0768 136.459 56.4044 136.792 55.671L136.794 55.6687C137.449 54.2369 138.368 53.1497 139.607 52.5617L139.639 52.5468L139.671 52.5341C140.08 52.3736 140.762 52.2539 141.591 52.1474C142.367 52.0267 142.753 51.8374 142.917 51.6953L145.647 49.3215L144.524 52.7604C144.071 54.1456 143.596 55.3495 143.094 56.3643L142.905 56.7474L142.497 56.8753C141.89 57.0656 141.315 57.1831 140.798 57.1831C140.614 57.1831 140.433 57.1764 140.253 57.1627C139.921 57.8055 139.6 58.6185 139.299 59.6163C138.897 60.9444 138.595 62.1214 138.39 63.15C138.196 64.2074 137.977 65.5059 137.733 67.047C137.733 67.0473 137.733 67.0476 137.733 67.0479L136.745 66.8914C135.5 74.7944 134.256 80.4051 133.012 83.7235L126.062 60.2079ZM126.062 60.2079C126.362 64.0435 126.971 67.9404 127.887 71.898L128.066 72.6725H128.861H132.709M59.6838 61.1543L59.6838 61.1543L59.6875 61.1629C60.2688 62.5143 60.564 63.9835 60.564 65.5815C60.564 66.6693 60.3967 67.6453 60.0722 68.52C59.6443 68.0264 59.2611 67.3822 58.9347 66.5618C58.4105 65.1814 58.1429 63.668 58.1429 62.0121C58.1429 60.9484 58.2533 59.9932 58.4655 59.14C58.9382 59.682 59.3462 60.3488 59.6838 61.1543Z" stroke="black" stroke-width="2"/>
<defs>
<filter id="filter0_d_1_54" x="7.13824" y="0" width="142.089" height="152" filterUnits="userSpaceOnUse" color-interpolation-filters="sRGB">
<feFlood flood-opacity="0" result="BackgroundImageFix"/>
<feColorMatrix in="SourceAlpha" type="matrix" values="0 0 0 0 0 0 0 0 0 0 0 0 0 0 0 0 0 0 127 0" result="hardAlpha"/>
<feOffset dy="4"/>
<feGaussianBlur stdDeviation="2"/>
<feColorMatrix type="matrix" values="0 0 0 0 0 0 0 0 0 0 0 0 0 0 0 0 0 0 0.25 0"/>
<feBlend mode="normal" in2="BackgroundImageFix" result="effect1_dropShadow_1_54"/>
<feBlend mode="normal" in="SourceGraphic" in2="effect1_dropShadow_1_54" result="shape"/>
</filter>
</defs>
</svg>
